<svg xmlns="http://www.w3.org/2000/svg" width="11.0" height="11.0" viewBox="0 0 11 11">
	
	<path class="color-input" stroke-width="1" fill-rule="evenodd" d="M5.5,11 C8.53756612,11 11,8.53756612 11,5.5 C11,2.46243388 8.53756612,0 5.5,0 C2.46243388,0 0,2.46243388 0,5.5 C0,8.53756612 2.46243388,11 5.5,11 Z M5.5,10 C7.98528137,10 10,7.98528137 10,5.5 C10,3.01471863 7.98528137,1 5.5,1 C3.01471863,1 1,3.01471863 1,5.5 C1,7.98528137 3.01471863,10 5.5,10 Z"></path>

	<path style="fill: black;" fill-opacity="0.1" stroke-width="1" fill-rule="evenodd" d="M5.5,11 C8.53756612,11 11,8.53756612 11,5.5 C11,2.46243388 8.53756612,0 5.5,0 C2.46243388,0 0,2.46243388 0,5.5 C0,8.53756612 2.46243388,11 5.5,11 Z M5.5,10 C7.98528137,10 10,7.98528137 10,5.5 C10,3.01471863 7.98528137,1 5.5,1 C3.01471863,1 1,3.01471863 1,5.5 C1,7.98528137 3.01471863,10 5.5,10 Z"></path>

	<circle class="color-input" r="4.5" fill-opacity="0.7" cx="5.5" cy="5.5"></circle>
​
</svg>